<svg xmlns="http://www.w3.org/2000/svg" xmlns:xlink="http://www.w3.org/1999/xlink" version="1.1" x="0px" y="0px" viewBox="0 0 28.35 35.4375" enable-background="new 0 0 28.35 28.35" xml:space="preserve"><path d="M23.601,11.031c0-1.345-0.609-3.297-0.609-3.297s0.064-0.832,0-1.152c-0.062-0.32-1.312-1.953-1.473-2.112  s-1.023-0.48-1.023-0.48s-0.256-0.576-0.932-1.567c-0.678-0.993-0.316-1.473-0.957-1.761c-0.639-0.288-4.316-0.299-4.316-0.299  h-0.232c0,0-3.676,0.011-4.316,0.299S9.462,1.43,8.786,2.423C8.111,3.414,7.854,3.99,7.854,3.99S6.99,4.311,6.83,4.47  C6.671,4.63,5.422,6.262,5.358,6.583c-0.064,0.32,0,1.152,0,1.152S4.75,9.687,4.75,11.031c0,1.344,0.704,3.184,0.704,3.184  s-0.479,1.104-0.224,1.649c0.257,0.543,0.929,1.695,1.185,2.016c0.257,0.32,1.088,0.385,1.312,0.768  c0.224,0.385,1.056,2.018,1.312,4.033c0.256,2.016,0.366,3.777,0.366,3.777s-0.31,1.529,4.654,1.529h0.232  c4.964,0,4.654-1.529,4.654-1.529s0.109-1.762,0.367-3.777c0.256-2.016,1.088-3.648,1.312-4.033  c0.223-0.383,1.055-0.447,1.311-0.768c0.258-0.32,0.928-1.473,1.186-2.016c0.254-0.545-0.225-1.649-0.225-1.649  S23.601,12.375,23.601,11.031z M21.898,13.773c-0.416,0.982-1.012,1.865-1.77,2.623s-1.641,1.354-2.623,1.77  c-1.02,0.43-2.102,0.648-3.214,0.648c-1.113,0-2.196-0.219-3.213-0.648c-0.984-0.416-1.867-1.012-2.624-1.77  S7.1,14.755,6.685,13.773c-0.431-1.019-0.65-2.101-0.65-3.214s0.219-2.195,0.65-3.213C7.1,6.362,7.696,5.479,8.453,4.721  c0.757-0.757,1.64-1.353,2.624-1.769c1.018-0.431,2.1-0.649,3.213-0.649c1.113,0,2.195,0.218,3.214,0.649  c0.982,0.416,1.865,1.011,2.623,1.769c0.758,0.758,1.354,1.641,1.77,2.624c0.43,1.019,0.648,2.1,0.648,3.213  S22.327,12.754,21.898,13.773z M14.291,4.678c3.248,0,5.88,2.632,5.88,5.88s-2.633,5.88-5.88,5.88c-3.247,0-5.88-2.633-5.88-5.88  S11.044,4.678,14.291,4.678 M14.291,3.24c-0.987,0-1.945,0.194-2.849,0.576C10.57,4.184,9.788,4.712,9.116,5.384  C8.444,6.055,7.917,6.838,7.548,7.709c-0.382,0.903-0.576,1.862-0.576,2.849c0,0.988,0.194,1.946,0.576,2.85  c0.369,0.871,0.896,1.654,1.568,2.326s1.454,1.199,2.326,1.568c0.903,0.381,1.861,0.574,2.849,0.574  c0.988,0,1.945-0.193,2.849-0.574c0.873-0.369,1.654-0.896,2.326-1.568s1.199-1.455,1.568-2.326c0.381-0.904,0.574-1.862,0.574-2.85  c0-0.987-0.193-1.946-0.574-2.849c-0.369-0.872-0.896-1.654-1.568-2.326c-0.672-0.672-1.453-1.199-2.326-1.568  C16.236,3.434,15.279,3.24,14.291,3.24L14.291,3.24z M15.943,6.557C15.19,5.978,14.607,6,14.175,6s-1.015-0.022-1.767,0.557  c-1.108,0.853-1.243,2.454-0.622,4.515c0.622,2.062,2.389,4.581,2.389,4.581s1.768-2.52,2.39-4.581  C17.186,9.011,17.049,7.409,15.943,6.557z M14.175,10.466c-1.035,0-1.873-0.838-1.873-1.873c0-1.034,0.838-1.873,1.873-1.873  s1.873,0.839,1.873,1.873C16.048,9.628,15.21,10.466,14.175,10.466z"/><text x="0" y="43.35" fill="#000000" font-size="5px" font-weight="bold" font-family="'Helvetica Neue', Helvetica, Arial-Unicode, Arial, Sans-serif">Created by Charlotte Vogel</text><text x="0" y="48.35" fill="#000000" font-size="5px" font-weight="bold" font-family="'Helvetica Neue', Helvetica, Arial-Unicode, Arial, Sans-serif">from the Noun Project</text></svg>